# xmcd CD database file
#
# Track frame offsets:
#	150
#	15909
#	35440
#	53266
#	70314
#	85197
#	105705
#	124219
#	141489
#	155530
#	173380
#	190264
#	209863
#
# Disc length: 3031 seconds
#
# Revision: 1
# Processed by: cddbd v1.5.2PL0 Copyright (c) Steve Scherf et al.
# Submitted via: CDex 2.21
#
DISCID=ad0bd50d
DTITLE=Tim McGraw - Sundown Heaven Town
DYEAR=2014
DGENRE=Country
TTITLE0=Overrated
TTITLE1=City Lights
TTITLE2=Shotgun Rider
TTITLE3=Dust
TTITLE4=Diamond rings and old barstools
TTITLE5=Words Are Medicine
TTITLE6=Sick Of Me
TTITLE7=Meanwhile Back At Mama's (Feat, Faith Hill)
TTITLE8=Keep On Truckin
TTITLE9=Last Turn Home
TTITLE10=Portland, Maine
TTITLE11=Lookin For That Girl
TTITLE12=Still On The Line
EXTD=YEAR: 2014
EXTT0=
EXTT1=
EXTT2=
EXTT3=
EXTT4=
EXTT5=
EXTT6=
EXTT7=
EXTT8=
EXTT9=
EXTT10=
EXTT11=
EXTT12=
PLAYORDER=
